<svg xmlns="http://www.w3.org/2000/svg" viewBox="0 0 160 160" role="img" aria-labelledby="t d"><title id="t">EagleEye eagle head</title><desc id="d">White eagle head with a golden eye and beak</desc><defs><linearGradient id="f" x1="0" y1="0" x2="1" y2="1"><stop offset="0" stop-color="#ffffff"/><stop offset=".55" stop-color="#d7e3ea"/><stop offset="1" stop-color="#7d929f"/></linearGradient><linearGradient id="g" x1="0" y1="0" x2="1" y2="1"><stop offset="0" stop-color="#ffd56a"/><stop offset="1" stop-color="#b66a12"/></linearGradient><radialGradient id="e"><stop offset="0" stop-color="#fff8cb"/><stop offset=".28" stop-color="#ffbf34"/><stop offset=".62" stop-color="#9f5808"/><stop offset=".64" stop-color="#101820"/></radialGradient></defs><path d="M18 97c18-47 55-77 106-72-19 8-31 19-38 35 22-4 38 2 48 17-22-5-42-1-61 12-10 7-19 18-26 31-9-10-18-18-29-23Z" fill="url(#f)"/><path d="M61 76c21-23 47-31 74-19-14 4-24 11-31 21 16-2 30 1 41 9-20 1-36 5-49 14-15 10-25 23-31 39-7-13-10-27-9-42 1-9 3-16 5-22Z" fill="#b8c9d3" opacity=".8"/><path d="M105 72c18 1 31 6 40 15l-20 8c3 9 2 19-2 31-8-11-17-18-28-21-5-15-2-26 10-33Z" fill="url(#g)"/><path d="M116 93c10 1 19 5 27 12-9 0-16 2-22 7 0-7-2-13-5-19Z" fill="#7c3f08"/><ellipse cx="103" cy="74" rx="12" ry="11" fill="#071018"/><ellipse cx="104" cy="74" rx="8" ry="8" fill="url(#e)"/><circle cx="106.5" cy="71.5" r="2.4" fill="#fff"/><path d="M57 63c13-10 28-15 44-15-15 5-27 13-37 25Z" fill="#fff" opacity=".9"/><path d="M45 76c12-8 24-12 37-12-13 7-23 16-30 28Z" fill="#eef5f8"/><path d="M35 91c10-7 20-10 30-10-11 8-19 17-24 28Z" fill="#dce8ee"/></svg>